PathFileType	4	(X/Y/Z)	C:\Git\research_data\Projects\torsion_deformities_healthy_kinematics\simulations\TD01\pre\static_01\marker_experimental.trc
DataRate	CameraRate	NumFrames	NumMarkers	Units	OrigDataRate	OrigDataStartFrame	OrigNumFrames
200	200	8	38	mm	200	76	200
Frame#	Time	C7			T10			CLAV			STRN			RBAK			LASI			RASI			SACR			RT1			RT2			RT3			RKNE			RS1			RS2			RS3			RANK			RHEE			RTOE			LT1			LT2			LT3			LKNE			LS1			LS2			LS3			LANK			LHEE			LTOE			LANM			RANM			RKNM			LKNM			RHJC			LHJC			LKJC			LAJC			RKJC			RAJC		
		X1	Y1	Z1	X2	Y2	Z2	X3	Y3	Z3	X4	Y4	Z4	X5	Y5	Z5	X6	Y6	Z6	X7	Y7	Z7	X8	Y8	Z8	X9	Y9	Z9	X10	Y10	Z10	X11	Y11	Z11	X12	Y12	Z12	X13	Y13	Z13	X14	Y14	Z14	X15	Y15	Z15	X16	Y16	Z16	X17	Y17	Z17	X18	Y18	Z18	X19	Y19	Z19	X20	Y20	Z20	X21	Y21	Z21	X22	Y22	Z22	X23	Y23	Z23	X24	Y24	Z24	X25	Y25	Z25	X26	Y26	Z26	X27	Y27	Z27	X28	Y28	Z28	X29	Y29	Z29	X30	Y30	Z30	X31	Y31	Z31	X32	Y32	Z32	X33	Y33	Z33	X34	Y34	Z34	X35	Y35	Z35	X36	Y36	Z36	X37	Y37	Z37	X38	Y38	Z38	

76	0.375000	612.142151	1224.325195	307.374146	609.348145	1032.591431	303.423523	625.324097	1225.546021	173.005783	625.416260	1104.327271	101.828674	704.980896	1156.635498	327.479736	516.355713	852.365540	129.539734	719.789917	859.920776	144.305450	606.483765	880.804321	299.727661	791.267395	662.218201	192.937836	803.346680	611.356506	234.693787	793.479309	596.341431	185.068848	815.296875	470.519897	223.548401	857.556641	359.150757	292.844147	858.699158	294.798401	310.442108	876.651489	302.140015	263.794464	894.957153	94.651108	285.482239	834.684021	74.332794	313.163177	920.461609	65.776588	144.354782	437.917114	664.652100	197.461090	430.188049	605.911133	228.220963	437.749237	601.505981	177.175293	410.824188	460.618256	222.648499	368.286316	341.610870	295.842468	360.765930	277.327209	308.757660	349.940704	288.559265	260.160858	336.502075	96.835869	308.572662	386.826263	77.072678	326.436371	285.248901	64.348534	164.636841	402.127594	91.730942	250.337830	817.244385	103.226585	239.228271	712.397705	431.200714	215.094940	523.374756	421.187744	217.644760	690.518522	795.015863	202.065818	541.700233	789.488979	191.264249	467.099472	440.903000	220.146629	369.314835	94.283405	279.455246	763.847290	450.860306	219.321671	856.100769	98.938847	262.355255	
77	0.380000	612.107056	1224.350098	307.380554	609.342590	1032.577759	303.453430	625.293335	1225.520996	173.007156	625.379822	1104.308838	101.852966	704.942078	1156.638672	327.511078	516.342957	852.403015	129.557938	719.767700	859.932373	144.330536	606.459167	880.773560	299.720642	791.265930	662.212646	192.929718	803.332153	611.355774	234.679993	793.464661	596.350830	185.029755	815.285400	470.526825	223.498398	857.562988	359.122223	292.808044	858.698425	294.779266	310.412903	876.596008	302.107819	263.752869	894.947449	94.644707	285.467560	834.688660	74.323799	313.163300	920.457031	65.773575	144.351868	437.914764	664.656067	197.462814	430.157257	605.916504	228.193192	437.759003	601.525696	177.162781	410.816467	460.615845	222.616898	368.281342	341.610748	295.824432	360.771484	277.334076	308.780914	349.928986	288.546387	260.129517	336.491699	96.830009	308.567291	386.837402	77.065681	326.427368	285.252228	64.350311	164.636612	402.127808	91.715912	250.330078	817.236633	103.211128	239.242722	712.401978	431.194672	215.032150	523.703003	421.100800	217.760315	690.490413	795.014144	202.061033	541.678341	789.506165	191.254378	467.259735	440.858322	220.188606	369.309753	94.272961	279.448685	763.843689	450.860748	219.265274	856.092041	98.927917	262.355141	
78	0.385000	612.073792	1224.354004	307.393433	609.326294	1032.574097	303.487732	625.261841	1225.488647	173.000229	625.339844	1104.263794	101.897827	704.908447	1156.647827	327.548340	516.315796	852.418152	129.580475	719.747009	859.943054	144.354935	606.447327	880.756042	299.761810	791.278198	662.237000	192.899048	803.313599	611.341980	234.654785	793.458496	596.365784	185.008057	815.275391	470.532776	223.454178	857.507019	359.119202	292.772064	858.693604	294.764221	310.383759	876.606140	302.086761	263.722626	894.926697	94.638069	285.467041	834.682312	74.325523	313.171875	920.465332	65.773338	144.352646	437.882599	664.665161	197.443039	430.130035	605.917664	228.187714	437.746918	601.520813	177.138855	410.790466	460.618683	222.589279	368.267059	341.611420	295.798981	360.740082	277.322906	308.742615	349.913849	288.537140	260.102356	336.493469	96.821846	308.572723	386.840210	77.069069	326.414856	285.252289	64.345222	164.637955	402.120453	91.717995	250.325500	817.234497	103.208733	239.221329	712.388123	431.185516	214.978775	523.327759	421.204803	217.587021	690.467946	795.011937	202.075445	541.651598	789.507234	191.267462	467.059113	440.911743	220.088150	369.306961	94.269920	279.449112	763.831757	450.859146	219.216476	856.080597	98.923401	262.344185	
79	0.390000	612.040466	1224.375488	307.421265	609.313538	1032.571533	303.560211	625.216125	1225.462036	172.984390	625.293823	1104.216797	101.934090	704.893677	1156.670166	327.602509	516.291077	852.428528	129.618759	719.723755	859.952332	144.385239	606.417358	880.736145	299.790436	791.269104	662.230103	192.881516	803.322998	611.356384	234.623322	793.451782	596.378052	184.978760	815.275513	470.520966	223.415100	857.558960	359.162476	292.730438	858.685791	294.772797	310.348969	876.614624	302.094177	263.694519	894.932556	94.633904	285.457977	834.677002	74.329803	313.166840	920.467163	65.771477	144.345749	437.847839	664.659119	197.429367	430.125336	605.916260	228.165710	437.594849	601.520264	176.878204	410.776947	460.614288	222.563263	368.250671	341.596558	295.782776	360.732635	277.330414	308.688599	349.904785	288.525116	260.083405	336.492798	96.830017	308.565704	386.824219	77.051346	326.419464	285.258575	64.344124	164.637833	402.110107	91.714722	250.333984	817.228516	103.207306	239.193771	712.389526	431.189758	214.900360	523.322449	421.198364	217.573181	690.447820	795.010592	202.093792	541.630460	789.506695	191.291651	467.049698	440.906326	220.068222	369.301453	94.272369	279.449844	763.832520	450.855362	219.157730	856.080536	98.920605	262.325874	
80	0.395000	612.013000	1224.381592	307.434753	609.299438	1032.574097	303.569824	625.168701	1225.435791	172.987900	625.255310	1104.190552	101.966843	704.864441	1156.683105	327.612488	516.264832	852.451233	129.660812	719.694153	859.963501	144.417053	606.394226	880.725525	299.814423	791.273132	662.249146	192.864639	803.295166	611.335754	234.605881	793.447327	596.385376	184.967606	815.260376	470.520416	223.375122	857.522400	359.142212	292.692078	858.680054	294.780212	310.316162	876.618652	302.090729	263.658569	894.934326	94.629715	285.458862	834.682861	74.337074	313.154602	920.460754	65.766434	144.342209	437.833588	664.680481	197.442551	430.088898	605.921082	228.163208	437.556000	601.542175	176.840698	410.760315	460.615326	222.553024	368.243927	341.605286	295.775391	360.740356	277.315735	308.691833	349.894562	288.514252	260.063782	336.493347	96.825287	308.565521	386.820068	77.054283	326.419647	285.255066	64.344742	164.641678	402.116211	91.707314	250.331207	817.233948	103.204880	239.196945	712.393799	431.187622	214.856140	523.292969	421.209381	217.545792	690.419511	795.014857	202.112893	541.604285	789.519386	191.318218	467.026642	440.912354	220.049408	369.304779	94.266300	279.448364	763.827087	450.854019	219.115631	856.084137	98.917297	262.327904	
81	0.400000	611.995972	1224.407104	307.423676	609.278137	1032.569336	303.600159	625.122925	1225.402466	172.980179	625.218933	1104.180908	101.973328	704.818481	1156.687012	327.642639	516.241028	852.464600	129.689941	719.670349	859.971436	144.448990	606.372192	880.700562	299.835999	791.280151	662.252197	192.855835	803.296326	611.334229	234.582611	793.447327	596.388916	184.939545	815.254456	470.519684	223.324738	857.510437	359.104401	292.657715	858.667847	294.787354	310.289734	876.600952	302.089996	263.636414	894.933105	94.636673	285.449554	834.668762	74.337669	313.162048	920.467773	65.772743	144.344131	437.646759	664.753540	197.397583	430.069092	605.915833	228.164520	438.136749	601.379700	177.266861	410.752838	460.621368	222.540985	368.225677	341.604431	295.751923	360.731934	277.309723	308.714661	349.868866	288.502197	260.048401	336.491547	96.820900	308.574341	386.834564	77.058853	326.406860	285.261108	64.348099	164.633102	402.112762	91.697678	250.333618	817.218262	103.198578	239.181244	712.399902	431.180481	214.805084	523.274658	421.206421	217.516281	690.394855	795.010687	202.127835	541.579630	789.519190	191.331106	467.013748	440.913895	220.028633	369.302155	94.259289	279.453979	763.827179	450.850082	219.064911	856.075684	98.917625	262.315399	
82	0.405000	611.968506	1224.407715	307.455719	609.263062	1032.571045	303.648468	625.064514	1225.377197	172.985718	625.174988	1104.136108	102.019600	704.792847	1156.692627	327.672485	516.226135	852.475952	129.735809	719.650269	859.968567	144.482056	606.356140	880.674194	299.884247	791.268188	662.260437	192.846680	803.289246	611.348389	234.564621	793.445496	596.398926	184.913864	815.245789	470.522247	223.289780	857.480225	359.124390	292.621979	858.659485	294.781799	310.270355	876.581299	302.081665	263.580444	894.928162	94.631119	285.449799	834.664001	74.342506	313.140350	920.469727	65.768517	144.336334	437.626099	664.755127	197.416489	430.018921	605.876709	228.228531	437.966156	601.411865	176.989395	410.746429	460.623962	222.528412	368.224701	341.603088	295.746887	360.710632	277.316864	308.678986	349.861420	288.493866	260.029541	336.479065	96.825478	308.567230	386.819977	77.052925	326.403503	285.259857	64.346191	164.642487	402.113434	91.701317	250.327499	817.222717	103.185448	239.190598	712.400085	431.189240	214.737671	523.266724	421.186310	217.485962	690.376123	795.000419	202.151062	541.564220	789.519308	191.363664	467.006577	440.905136	220.007187	369.296249	94.263397	279.447365	763.822937	450.855743	219.013725	856.075439	98.908283	262.320198	
83	0.410000	611.923706	1224.419189	307.458649	609.234192	1032.581543	303.683533	625.007874	1225.362793	172.978790	625.140808	1104.100342	102.050529	704.746521	1156.708862	327.697205	516.209656	852.482727	129.775574	719.628845	859.974304	144.526703	606.341919	880.640930	299.907684	791.264526	662.280029	192.845718	803.307373	611.358521	234.547409	793.449829	596.415710	184.898865	815.246765	470.525085	223.258087	857.445251	359.141205	292.583588	858.646423	294.780975	310.243591	876.591858	302.075317	263.585724	894.927795	94.637894	285.441345	834.662659	74.342598	313.150360	920.466187	65.769073	144.343506	437.782013	664.710449	197.473801	429.933746	605.991455	228.128326	437.929016	601.422729	176.977570	410.740753	460.624207	222.520798	368.209198	341.604126	295.733032	360.701904	277.302185	308.644989	349.848633	288.491638	260.011353	336.488831	96.821487	308.561279	386.813599	77.057770	326.418915	285.260651	64.351036	164.630783	402.110382	91.705849	250.330170	817.227905	103.183662	239.168854	712.406982	431.201660	214.687927	523.245239	421.188171	217.477600	690.355655	794.993599	202.174851	541.547041	789.513235	191.383858	466.992996	440.906189	219.999199	369.299606	94.263668	279.445724	763.826874	450.863373	218.973007	856.077850	98.910778	262.305099	
